# xmcd
#
# Track frame offsets:
#	150
#	17548
#	31076
#	46549
#	78109
#	100894
#	123036
#	144084
#	159614
#	186704
#
# Disc length: 2731 seconds
#
# Revision: 1
# Processed by: cddbd v1.5.2PL0 Copyright (c) Steve Scherf et al.
# Submitted via: audiograbber 1.83.01
#
DISCID=6a0aa90a
DTITLE=CDPool - Street March 09 CD2
DYEAR=2009
DGENRE=R&B
TTITLE0=Keyshia Cole - You Complete Me (Album Version)
TTITLE1=Chris Cornell - Ground Zero
TTITLE2=Flo Rida - Right Round Ft Kesha
TTITLE3=Steve Angello and Laidback Luke Ft Robin S - Show Me Love (Geeneus Remix)
TTITLE4=Dan Black - Alone (MJ Cole Vocal Mix)
TTITLE5=Greenjade Ft Ryan Carty - Creation Me (Jimmy James Remix)
TTITLE6=Whytepatch Ft Gift and Mizz Teejah - Fresh Air (Extended Club Mix)
TTITLE7=The Middle Agent Ft Tech N9ne and Garth Culti-Vader - Keep It Hott (The M
TTITLE7=iddle Agent Mix)
TTITLE8=Hydro Ft Kevin Leo - Pardon Me (Explicit)
TTITLE9=Team Infamous - Wassup (Main Version)
EXTD=
EXTT0=
EXTT1=
EXTT2=
EXTT3=
EXTT4=
EXTT5=
EXTT6=
EXTT7=
EXTT8=
EXTT9=
PLAYORDER=
